<?xml version="1.0" encoding="iso-8859-1"?>
<!-- Uploaded to: SVG Repo, www.svgrepo.com, Generator: SVG Repo Mixer Tools -->
<svg fill="#000000" height="800px" width="800px" version="1.1" id="Layer_1" xmlns="http://www.w3.org/2000/svg" xmlns:xlink="http://www.w3.org/1999/xlink" 
	 viewBox="0 0 512 512" xml:space="preserve">
<g>
	<g>
		<path d="M461.084,486.4l-128.88-223.225c40.862-25.895,66.435-71.409,66.435-120.535C398.64,63.987,334.652,0,256.001,0
			s-142.64,63.987-142.64,142.639c0,49.134,25.581,94.655,66.433,120.538L50.918,486.4c-6.566,11.372,1.67,25.6,14.78,25.6
			c14.938,0,368.508,0,380.607,0C459.432,512,467.64,497.756,461.084,486.4z M147.494,142.639
			c0-59.83,48.675-108.505,108.505-108.505s108.505,48.675,108.505,108.505c0,59.062-47.952,108.505-108.505,108.505
			C195.752,251.144,147.494,202.032,147.494,142.639z M95.258,477.867l65.135-112.82l49.268,112.82H95.258z M273.898,384.755
			l13.98-24.214c6.565-11.37-1.667-25.6-14.78-25.6h-34.195c-13.132,0-21.334,14.247-14.78,25.6l13.98,24.214l-9.256,51.755
			L181.6,328.317l29.095-50.394c28.475,9.607,60.852,10.001,90.609,0l29.096,50.396l-47.247,108.194L273.898,384.755z
			 M302.339,477.867l49.268-112.82l65.137,112.82H302.339z"/>
	</g>
</g>
</svg>